<svg width="40" height="44" viewBox="0 0 40 44" fill="none" xmlns="http://www.w3.org/2000/svg">
<path d="M8 2L2 10V38C2 39.0609 2.42143 40.0783 3.17157 40.8284C3.92172 41.5786 4.93913 42 6 42H34C35.0609 42 36.0783 41.5786 36.8284 40.8284C37.5786 40.0783 38 39.0609 38 38V10L32 2H8Z" stroke="#868E96" stroke-width="4" stroke-linecap="round" stroke-linejoin="round"/>
<path d="M2 10H38" stroke="#868E96" stroke-width="4" stroke-linecap="round" stroke-linejoin="round"/>
<path d="M28.0003 18.0001C28.0003 20.1218 27.1574 22.1566 25.6572 23.6569C24.1569 25.1572 22.122 26.0001 20.0003 26.0001C17.8786 26.0001 15.8437 25.1572 14.3435 23.6569C12.8432 22.1566 12.0003 20.1218 12.0003 18.0001" stroke="#868E96" stroke-width="4" stroke-linecap="round" stroke-linejoin="round"/>
</svg>
